<svg xmlns="http://www.w3.org/2000/svg" height="800" width="1200" viewBox="-16.70571 -10.146775 144.78282 60.88065"><defs><clipPath id="a" clipPathUnits="userSpaceOnUse"><path d="M32 31.621h33.675v12.272H32z"/></clipPath></defs><g transform="matrix(3.3073 0 0 -3.3073 -105.835 145.167)" clip-path="url(#a)"><path d="M61.7995 33.822c0-.227.133-.341.399-.341h.84c.342 0 .588-.067.738-.201.149-.133.224-.362.224-.685 0-.326-.085-.564-.256-.714-.171-.15-.437-.225-.798-.225h-1.689v.559h1.588c.174 0 .299.026.376.078.077.053.116.144.116.276 0 .136-.035.231-.106.283-.069.053-.184.079-.344.079h-.748c-.347 0-.601.072-.762.216-.161.144-.242.372-.242.684 0 .337.086.582.257.733.17.152.438.228.802.228h1.659v-.559h-1.567c-.325 0-.487-.137-.487-.411m-2.092-1.62h1.042v-.546h-1.072c-.207 0-.371.014-.491.044-.162.04-.312.117-.449.231-.309.256-.463.668-.463 1.236 0 .556.116.966.347 1.229.231.264.589.396 1.073.396h1.055v-.547h-1.042c-.451 0-.689-.242-.714-.729h1.756v-.546h-1.76c.002-.279.06-.477.172-.593.112-.117.294-.175.546-.175m-1.87 2.59v-3.136h-.664v3.136zm-1.983-.634c-.081.05-.222.075-.424.075h-.777v-.791h.777c.199 0 .343.028.431.083.088.055.132.16.132.314 0 .155-.046.261-.139.319m.173-1.192l.752-1.31h-.714l-.664 1.231h-.748v-1.231h-.634v3.136h1.563c.361 0 .627-.076.798-.228.171-.151.256-.39.256-.716 0-.498-.203-.792-.609-.882m-3.294 1.275v-2.585h-.655v2.585h-.975v.546h2.609v-.546zm-3.991-.419c0-.227.133-.341.399-.341h.84c.342 0 .588-.067.738-.201.15-.133.225-.362.225-.685 0-.326-.086-.564-.257-.714-.17-.15-.436-.225-.798-.225h-1.689v.559h1.588c.174 0 .299.026.376.078.077.053.116.144.116.276 0 .136-.035.231-.105.283-.07.053-.185.079-.345.079h-.747c-.348 0-.602.072-.763.216-.161.144-.241.372-.241.684 0 .337.085.582.256.733.171.152.438.228.802.228h1.66v-.559h-1.567c-.325 0-.488-.137-.488-.411m-1.285-1.769c-.233-.288-.611-.432-1.135-.432-.523 0-.903.144-1.138.432-.115.143-.172.424-.172.843v1.896h.63v-1.878c0-.286.049-.488.147-.608.098-.119.276-.179.533-.179.258 0 .435.06.532.179.097.12.145.322.145.608v1.878h.634v-1.896c0-.416-.059-.697-.176-.843m-3.727 1.97c-.106.148-.299.222-.579.222h-.736v-2.043h.736c.28 0 .473.073.579.22.107.147.16.414.16.802 0 .384-.053.65-.16.799m.391-2.092c-.137-.114-.287-.191-.449-.231-.121-.03-.285-.044-.492-.044h-1.399v3.136h1.382c.485 0 .843-.132 1.074-.396.231-.263.346-.673.346-1.229 0-.568-.154-.98-.462-1.236m-3.688-.275l-1.298 2.371.029-2.371h-.651v3.136h.802l1.235-2.254-.029 2.254h.647v-3.136zm-2.546 3.136v-3.136h-.664v3.136zm24.574 4.7686c1.053-.418 1.579-1.098 1.579-2.04 0-.732-.311-1.299-.935-1.701-.623-.403-1.509-.604-2.659-.604h-5.802v1.485h4.771c1.257 0 1.885.354 1.885 1.062 0 .708-.628 1.062-1.885 1.062h-3.852v1.484h3.787c1.257 0 1.886.346 1.886 1.038 0 .7-.629 1.05-1.886 1.05h-4.706v1.485h5.56c2.547 0 3.82-.769 3.82-2.305 0-.789-.521-1.461-1.563-2.016m-12.539 2.474l-4.674-3.753h4.674zm2.433-5.238v-1.581h-2.433v1.581h-7.446v1.678l6.801 5.419h3.078v-5.612h1.58v-1.485zm-12.539 2.764c1.053-.418 1.58-1.098 1.58-2.04 0-.732-.312-1.299-.935-1.701-.623-.403-1.51-.604-2.659-.604h-5.802v1.485h4.77c1.257 0 1.886.354 1.886 1.062 0 .708-.629 1.062-1.886 1.062h-3.852v1.484h3.788c1.257 0 1.886.346 1.886 1.038 0 .7-.629 1.05-1.886 1.05h-4.706v1.485h5.56c2.546 0 3.82-.769 3.82-2.305 0-.789-.521-1.461-1.564-2.016m24.6795-4.8867h-.215v.116h.576v-.116h-.216v-.549h-.145zm.4287.1169h.206l.17-.511.17.511h.205v-.666h-.137l.011.518-.171-.518h-.149l-.176.524.014-.524h-.143z" fill="#d3d3d3"/></g></svg>