<svg xmlns="http://www.w3.org/2000/svg" height="800" width="1200" viewBox="-59.99985 -46.87125 519.9987 281.2275"><g fill="#d3d3d3"><path d="M54.028 69.43C64.736 29.444 101.223 0 144.588 0c43.765 0 80.534 29.991 90.86 70.543l-37.696.016-4.344-9.975s7.412-6.92 9.318-9c3.235-3.528 1.172-5.606-.62-7.602-1.792-1.997-5.176-5.845-7.427-8.066-2.252-2.222-4.89-4.185-8.283-.144-.847 1.012-8.97 9.141-8.97 9.141l-21.207-9-.044-13.88c0-3.879-1.907-4.318-4.687-4.363-2.78-.046-10.075-.007-12.607 0-2.532.006-5.01.646-5.01 4.687 0 4.24.114 13.712.114 13.712l-21.567 8.689-10.004-9.465c-3.09-2.78-5.155-.973-6.747.67-1.591 1.645-6.331 6.685-7.697 8.055-1.365 1.369-3.394 4.04-.688 7.26l9.465 9.465-4.234 8.799-38.48-.108zm38.525 48.408l4.19 9.31c-7.896 7.758-8.299 8.425-8.94 9.048-3.664 3.556-1.724 5.846-.485 7.058 1.555 1.52 7.576 7.455 8.89 8.728 1.724 1.67 4.202 3.07 6.896.27 2.168-2.173 9.464-9.433 9.464-9.433l21.412 9s-.05 8.89 0 13.254c.05 4.364 2.308 4.95 4.248 4.9 1.94-.05 11.799.051 13.415 0 1.616-.052 4.202-.048 4.522-4.896v-13.414l21.567-8.688 24.93 24.365c-15.972 12.613-36.145 20.145-58.074 20.145-43.55 0-80.165-29.698-90.696-69.946l38.66.299z" clip-rule="evenodd" fill-rule="evenodd"/><path d="M0 75.756h31.913c8.84 0 13.135 2.397 13.135 9.49 0 6.191-2.25 7.39-5.347 8.29v.148c4.844.597 6.642 3.194 6.642 8.637 0 7.944-4.694 9.592-11.036 9.592H0V75.755zm11.088 14.333h19.626c2.048 0 3.245-.749 3.245-2.797 0-2.098-1.197-2.847-3.245-2.847H11.088v5.64zm0 13.135h19.876c2.397 0 3.996-.55 3.996-2.648 0-2.447-1.599-2.996-3.996-2.996H11.088zm41.951-27.468h39.553v8.39H64.125v5.793h26.97v7.491h-26.97v5.793h29.116v8.693H53.04zm43.749 0h42.25v8.99h-15.582v27.17H112.37V84.75H96.788v-8.992zm46.595 0h11.092V88.64h23.373V75.756h11.087v36.16h-11.087V98.23h-23.373v13.687h-11.092v-36.16zm52.545 0h39.563v8.39h-28.468v5.793h26.97v7.491h-26.97v5.793h29.117v8.693h-40.212zm45.756 24.321h11.086c.052 3.846 1.601 4.146 4.797 4.146h13.585c2.347 0 4.744-.25 4.744-3.047 0-3.146-1.297-3.346-15.58-3.346-16.68 0-18.578-1.998-18.578-10.887 0-6.543.599-11.587 14.583-11.587h15.483c12.784 0 13.984 4.345 13.984 10.688v1.15h-11.09c0-2.652-.3-3.75-5.394-3.75H257.02c-2.497 0-4.196.849-4.196 2.797 0 3.146 1.35 3.246 13.234 3.196 17.23-.049 21.225 1 21.225 11.538 0 9.74-3.295 11.34-18.028 11.34h-13.434c-10.089 0-14.133-1.9-14.133-9.744v-2.498zm52.838-24.321h33.462c11.086 0 14.982 3.646 14.982 12.585V99.33c0 8.94-3.896 12.587-14.982 12.587h-33.462v-36.16zm11.086 26.868h19.678c4.746 0 6.593-1.348 6.593-6.492v-4.894c0-5.145-1.848-6.493-6.593-6.493h-19.678zm60.08-26.868h14.434l19.877 36.16h-12.337l-3.444-6.393h-22.474l-3.246 6.397h-12.387l19.578-36.16zm.201 21.974h14.184l-7.191-13.585-6.992 13.585zm-201.228 32.937c0 4.585-1.49 6.214-5.702 6.214h-9.404c-4.561 0-6.004-2.048-6.004-6.307v-4.608c0-4.26 1.443-6.308 6.006-6.308h8.611c3.026 0 6.26.745 6.26 4.631v.603h-2.141c0-3.142-.955-3.375-6.587-3.375h-5.911c-2.185 0-3.957.652-3.957 3.584v6.33c0 2.933 1.772 3.585 3.957 3.585h8.915c2.282 0 3.679-.792 3.679-3.119v-1.699h-8.634v-1.861h10.915v2.327zm12.148-10.822h2.84l10.004 16.85h-2.582l-2.095-3.56h-13.499l-2.095 3.56H166.8l10.008-16.85zm1.42 1.862l-5.656 9.566h11.312l-5.656-9.563zm14.104-1.862h3.562l9.853 14.128 9.846-14.128h3.561v16.85h-2.28v-14.802h-.046l-10.265 14.802h-1.63l-10.272-14.802h-.047v14.802h-2.28v-16.85zm31.15 0h16.548v1.862h-14.266v5.376h13.708v1.862h-13.708v5.888h14.359v1.862h-16.641zm31.373 11.544h2.142v1.187c0 1.652.884 2.443 3.723 2.443h7.076c3.305 0 4.282-.698 4.282-3.118 0-2.118-.838-2.654-3.677-2.654h-4.328c-6.96 0-9.24-.418-9.24-4.887 0-3.84 2.28-4.701 6.981-4.701h4.912c5.652 0 7.073 1.443 7.073 4.445v.582h-2.14c-.046-2.677-.328-3.166-6.309-3.166h-2.419c-4.398 0-5.958.233-5.958 3.003 0 2.005.629 2.677 4.19 2.677h6.75c4.444 0 6.306 1.28 6.306 4.144v1.093c0 4.144-3.4 4.448-6.776 4.448h-6.329c-3.33 0-6.263-.582-6.263-4.26v-1.236zm30.303-9.682h-8.518v-1.862h19.317v1.862h-8.518v14.989h-2.28v-14.993zm13.66-1.862h2.283v12.592c0 1.629.558 2.586 3.653 2.586h7.913c3.095 0 3.654-.955 3.654-2.583v-12.591h2.28v12.614c0 3.42-1.722 4.422-6.004 4.422h-7.772c-4.283 0-6.005-1.002-6.005-4.422V119.85zm24.113 0h13.616c5.657 0 7.192 1.769 7.192 8.425 0 6.19-1.536 8.425-7.261 8.425h-13.546v-16.85zm18.527 7.61c0-4.864-1.513-5.749-4.306-5.749h-11.94v13.127h11.568c2.77 0 4.678-.606 4.678-5.655zm6.377-7.61h2.28v16.85h-2.28zm6.842 6.122c0-4.26 1.443-6.308 6.006-6.308h9.704c4.563 0 6.006 2.048 6.006 6.307v4.609c0 4.26-1.443 6.31-6.006 6.31h-9.704c-4.563 0-6.006-2.05-6.006-6.307v-4.608zm19.433-.862c0-2.928-1.768-3.581-3.956-3.581h-9.239c-2.187 0-3.956.653-3.956 3.585v6.33c0 2.933 1.769 3.585 3.956 3.585h9.24c2.19 0 3.957-.653 3.957-3.584v-6.33zM380 131.39h2.141v1.19c0 1.652.884 2.444 3.724 2.444h7.075c3.305 0 4.283-.699 4.283-3.12 0-2.118-.838-2.653-3.678-2.653h-4.329c-6.96 0-9.24-.418-9.24-4.888 0-3.84 2.28-4.7 6.983-4.7h4.91c5.656 0 7.076 1.442 7.076 4.444v.582h-2.141c-.046-2.676-.326-3.165-6.308-3.165h-2.42c-4.399 0-5.958.233-5.958 3.003 0 2.003.628 2.677 4.19 2.677h6.749c4.444 0 6.307 1.28 6.307 4.144v1.092c0 4.144-3.399 4.447-6.774 4.447h-6.33c-3.325 0-6.258-.582-6.258-4.259v-1.234zm10.1-52.187a4.425 4.425 0 014.434-4.433 4.432 4.432 0 014.434 4.433 4.432 4.432 0 01-4.434 4.433 4.425 4.425 0 01-4.433-4.433zm7.856 0a3.427 3.427 0 00-3.422-3.42 3.405 3.405 0 00-3.42 3.42 3.405 3.405 0 003.42 3.422 3.428 3.428 0 003.422-3.422zm-1.21 2.433h-1.14l-1.072-1.968h-.896v1.967h-1.012v-4.796h2.397c1.106 0 1.862.197 1.862 1.465 0 .884-.454 1.245-1.303 1.303l1.163 2.026zm-1.7-2.737c.536.012.827-.116.827-.721 0-.569-.606-.569-1.07-.569h-1.165V78.9h1.408z"/></g></svg>