<svg xmlns="http://www.w3.org/2000/svg" height="800" width="1200" viewBox="-25.4865 -9.891225 220.883 59.34735"><defs><clipPath id="a" clipPathUnits="userSpaceOnUse"><path d="M345.26 56.789h135.931v31.652H345.26z"/></clipPath><clipPath id="b" clipPathUnits="userSpaceOnUse"><path d="M345.26 56.789h135.928v31.652H345.26z"/></clipPath><clipPath id="c" clipPathUnits="userSpaceOnUse"><path d="M345.26 56.789h135.931v31.652H345.26z"/></clipPath><clipPath id="d" clipPathUnits="userSpaceOnUse"><path d="M345.26 56.789h135.928v31.652H345.26z"/></clipPath></defs><g clip-path="url(#a)" transform="matrix(1.25 0 0 -1.25 -431.575 110.5512)"><path d="M460.7914 88.441c1.694-1.105 3.05-2.765 4.275-4.356.457-.349.915-.699 1.372-1.049 1.37-1.721 3.1-3.071 4.436-4.84.511-.483 1.022-.968 1.533-1.452.646-.855 1.3-1.594 1.936-2.5.206-.294.512-.503.645-.887h.081v2.984c-.398.641.14 1.926.081 2.501-.109 1.04-.1 2.19-.162 3.388l-.081.645c.27 1.377.344 2.808.081 4.195.081.027.162.053.242.08.273.175 2.679.205 2.904.162.043-.123.054-.137.081-.323-.522-.746-.324-2.402-.081-3.388.064-.259.253-.661.161-1.049-.241-1.028-.244-2.396 0-3.468.13-.569-.155-.965-.242-1.291-.16-.606.216-2.322.323-2.904.098-.53-.126-2.715-.242-3.226-.318-1.405-.081-3.223-.081-4.76h-.08v.081c-2.509 2.361-5.327 4.487-7.421 7.26-.512.677-1.342 1.175-1.856 1.855-.774 1.025-1.678 2.001-2.581 2.904-.403.377-.807.753-1.21 1.129-.434.628-.748 1.35-1.371 1.775v-.726c.58-.933-.348-2.881-.081-4.114.324-1.497.429-3.488.403-5.162V70.13c-.157-.717-.365-1.422-.403-2.178-.31-.195-.55-.253-1.129-.242-.272.176-.98.163-1.372.161v.162c-.901 1.195.039 3.712-.322 5.404-.083.389-.224 1.459-.162 1.856.098.624.559 1.49.404 2.258-.096.474.042 1.281-.081 1.855-.096.451.037 1.224-.081 1.775-.196.92-.189 2.103 0 2.985-.027.511-.053 1.022-.08 1.532.053.914.107 1.829.161 2.743m-68.4043-.6454c2.51.051 5.027-1.198 5.324-3.307-.055-.063-.106-.18-.162-.242-.397-.41-1.27-1.056-1.935-1.13-.204.243-.747 1.08-.969 1.21-.375.221-.762.18-1.209.323-1.049.336-1.488.331-2.421-.242-.291-.179-.569-.169-.725-.484-.332-.422-.58-1.217-.726-1.775.564-.618 1.129-1.237 1.694-1.855.507-.329 1.242-.153 1.855-.403.479-.195.86-.785 1.29-1.049.538-.161 1.076-.323 1.614-.484l2.178-2.823v-1.371c.09-.417.443-1.33.323-1.775-.104-.382-.599-.948-.807-1.291-.404-.665-.524-1.431-.968-2.016-.509-.671-1.226-.702-2.098-1.049-.487-.194-1.037-.588-1.532-.726-.559-.156-2.941.074-3.388.242-.731.274-1.624 1.456-2.259 1.936-.192.146-.492.226-.645.403-.081.296-.161.592-.242.888-.2.49-1.086 1.623-.887 2.097.027.081.053.161.08.242.834.188 1.667.376 2.501.565.36-.119.401-.941.565-1.291.164-.353 1.215-1.793 1.613-1.855.236-.158 2.25-.485 2.5-.323 2.49.806 3.161 4.561.807 6.05-.403.107-.807.215-1.21.322-.718.302-1.457.821-2.097 1.21-.844.514-1.826.717-2.581 1.291-.416.316-.428.838-.646 1.371-.227.558-.638 1.307-.806 1.856-.17.553.201 1.072.322 1.371.185.453.171.874.404 1.291.238.428.76.747 1.048 1.129.172.228.321.588.565.726.558.316 1.205.274 1.855.484.282.091.684.326.968.403.288.079.611-.039.807.081m11.1319-.4033c.811.004 1.637-.048 2.339-.081.027-.08.054-.161.081-.242.27-.439-.008-1.421.081-2.016.169-1.136.161-2.411.161-3.711 0-4.598.07-9.146 0-13.471-.118-.069-.231-.146-.323-.242h-2.662c-.122.226-.165.4-.161.807.422.682.179 3.375.081 4.436-.081.807-.162 1.614-.242 2.42.284 1.262.447 3.485.242 4.84v2.339c-.157 1.048-.245 4.114.242 4.76.059.07.101.091.161.161" fill="#d3d3d3"/></g><g clip-path="url(#b)" transform="matrix(1.25 0 0 -1.25 -431.575 110.5512)"><path d="M431.5904 87.3923l2.581-.081c.195-.31.254-.55.242-1.129.392-.634-.132-3.385.081-4.356.108-1.049.215-2.097.323-3.146-.043-.275-.332-.697-.404-.968-.055-.21.063-.479.081-.565l.081-2.661c-.015-2.007-.158-4.243-.162-6.454-.195-.105-.228-.145-.564-.161-.366-.236-1.483-.091-2.017-.081-.386.684-.673 3.534-.403 4.76.133.606.059 1.521.08 2.258.074 2.497-.579 6.252 0 8.712.323 1.37-.456 2.821.081 3.872m-68.8883-10.9704v-1.21c-.12-.302-.542-.624-.726-.887-.356-.509-.538-1.252-.968-1.694-.862-.887-2.345-1.452-3.63-1.936-.451-.17-1.327-.777-1.936-.646-.365.079-.79.46-1.129.565h-1.694c-.607.205-1.258 1.017-1.694 1.452-.617.616-1.575 1.263-1.936 2.097-.975 2.252-.377 6.802.887 8.47.434.573 2.893 1.885 3.711 2.178.388.139 1.113-.041 1.452.161 1.337.002 2.505-.009 3.468-.403.933-.381 2.658-2.366 3.388-3.146.341-.442.18-1.292.404-1.855.148-.374.532-.777.645-1.129.176-.547-.143-1.546-.242-2.017m2.097 5.727c-.44 1.047-1.262 1.538-2.016 2.259-.377.484-.753.968-1.13 1.452-1.757 1.222-4.422 1.908-7.34 1.936-.717-.557-2.899-.875-3.872-1.291-1.938-.828-2.969-2.322-4.033-4.033-.116-.186-.408-.435-.484-.645l-.162-1.533c-.122-.505-.411-1.173-.484-1.613-.083-.509.136-1.604.242-2.098l.081-1.452c.543-2.035 1.586-3.385 2.662-4.84.105-.142.116-.367.242-.484.517-.48 1.403-.593 2.016-.968.554-.338 1.168-.875 1.775-1.129 1.286-.537 5.209-.454 6.695 0 .485.148 1.332.43 1.775.726.51.341.881 1.001 1.371 1.371 3.376 2.55 4.686 7.532 2.662 12.342" fill="#d3d3d3"/></g><g clip-path="url(#c)" transform="matrix(1.25 0 0 -1.25 -431.575 110.5512)"><path d="M423.6046 76.3411c-.207-.918-.344-2.333-.807-2.985-.258-.669-1.96-1.139-2.339-2.178-.719-.021-3.946-.392-4.356-.645-.451-.017-1.079-.077-1.291.161-.214.463.219 2.092 0 2.985-.095.392-.379.962-.242 1.533.135.51.269 1.021.404 1.532-.06.412-.378.91-.484 1.291-.438 1.574.006 3.921.322 5.082.099.359-.141.849.081 1.21.027.081.054.161.081.242.18.033.584.069.726.161.941-.08 1.882-.161 2.823-.242.393-.138.852-.59 1.21-.806.627-.381 1.404-.469 2.017-.888.995-.681 1.27-2.021 1.774-3.226.052-.123.328-.499.323-.646-.023-.666-.084-1.881-.242-2.581m3.227 3.227v.806c-.134.421-.55.883-.726 1.291-2.21 5.11-6.993 5.913-14.359 5.808-.325-.759.315-1.533.081-2.501-.434-1.796-.506-5.122-.081-7.098.23-1.071-.247-1.892-.403-2.501-.134-.522.232-1.079.323-1.452v-3.872c0-.41-.087-1.102.08-1.371-.006-.577.074-.794.242-1.13h4.033c.537.124 1.794.418 2.259.404.266-.008.905-.208 1.291-.081.683.225 1.282.889 1.936 1.129.41.151 1.007.024 1.371.242 1.184.002 1.551 1.201 2.017 1.936.179.284.505.563.645.888.218.507.214 1.014.484 1.452.217.351.67.718.807 1.129v.807c.311 1.394.299 2.792 0 4.114m23.8767-4.4369c-.673-.011-2.183-.225-2.662.081h-3.227c.611 1.249 1.045 2.66 1.614 3.952.39.887 1.151 1.919 1.29 2.985.776-.618 1.086-2.374 1.452-3.469.079-.234.409-.801.404-1.048-.054-.108-.108-.216-.162-.323.075-.258 1.14-1.665 1.372-1.855-.027-.186-.038-.201-.081-.323m4.84-3.711c-.367.836-.799 1.565-1.129 2.34-.682 1.598-1.076 3.113-1.936 4.517-.517.844-1.244 1.688-1.614 2.662-.134.645-.269 1.291-.403 1.936-.247.73-.746 1.487-1.049 2.178-.173.394-.114.793-.322 1.21-.121.241-.486.503-.646.726-.295.412-.469 1.008-.968 1.21-.238-.827-.877-1.5-1.21-2.259-.412-.94-.532-1.934-.968-2.904-.373-.832-1.146-1.573-1.613-2.339-.517-.849-.363-2.056-.807-2.985-.148-.31-.59-.561-.726-.887-.107-.538-.215-1.076-.322-1.613-.19-.487-.716-.859-.968-1.291-.216-.369-.097-.839-.242-1.291-.125-.388-.451-.66-.646-.968-.489-.772-.878-1.41-1.209-2.339-.121-.338-.518-1.039-.323-1.371v-.162c.625-.012 2.304-.23 2.662 0 .506.179.467.628.726 1.049.681 1.11 1.263 2.491 1.936 3.63 1.693.335 3.96.081 5.808.081.564 0 1.703.167 2.097-.081.496-.188.517-.813.726-1.291.322-.735 1.36-3.227 2.017-3.468.195-.138 1.014-.14 1.21 0 .434-.006.979-.026 1.29.08-.08 1.43-.903 2.565-1.371 3.63m-77.197.4843c-.316-.512-.982-1.032-1.613-1.21-.851-.24-2.192.258-2.904-.161-.364.021-.388.085-.646.161-.001 1.037-.228 1.919 0 2.985.059.274.186.974.081 1.371-.124.466-.176.654-.161 1.291.967.026 1.936.053 2.904.08.404-.126 1.864-.911 2.097-1.21.623-.8.745-2.492.242-3.307m-5.163 12.1c.001.385.045.51.162.726 2.059-.122 3.06-.476 3.63-2.178.128-.383.398-.994.161-1.533-.026-.059-.688-1.249-.726-1.29-.332-.355-.982-.428-1.371-.726-.432-.011-1.251-.104-1.533.08-.174.256-.068.608-.161.968-.172.66-.436 3.534-.162 3.953m8.632-9.841c-.111.498.007.88-.162 1.29-.401.972-2.098 2.772-3.307 2.904.344.469 1.158.714 1.371 1.291l.081 1.129c.094.393.558 1.509.484 1.856-.117.545-.899 2.366-1.21 2.823-.3.44-.993.676-1.452.968-.271.172-.565.539-.887.645h-1.049c-1.554.347-3.529.225-5.324.403-.273-.583.404-.917.242-1.694-.085-.409-.446-.969-.565-1.452-.207-.847.373-1.591.242-2.339-.26-1.493-.313-3.377 0-4.84-.053-1.048-.107-2.097-.161-3.146v-1.452c-.112-.49-.449-1.434-.323-2.016.033-.151.205-.495.242-.646.119-.482-.063-1.016.162-1.371-.005-.509.069-.614.242-.887l3.71-.081c.236 0 .705-.096.807-.081 2.051.316 4.65.925 5.647 2.34.484.887.968 1.774 1.452 2.662.153.484-.154 1.298-.242 1.694m95.9916-8.6315v-.645c-.688-.231-1.905-.088-2.743-.081-.614-.38-1.953.089-2.742-.081-1.053-.226-2.364 0-3.469 0h-2.662c-.329.072-1.077.178-1.532.081-.769-.164-1.977-.081-3.066-.081h-6.372c-3.657-.107-7.315-.215-10.971-.322-1.808.398-4.147.322-6.372.322h-11.374c-1.802-.026-3.603-.054-5.405-.08-1.475.319-3.532.08-5.163.08-2.916 0-5.834.161-8.55.162-2.151-.108-4.302-.216-6.453-.323-1.107-.014-2.011.586-3.227.323-1.708-.371-4.013-.457-5.727-.081h-1.613l-4.598-.081-6.212.081c-.882 0-1.997.082-2.742-.081h-4.276c-1.003-.216-2.949-.219-3.952 0-1.09.238-2.48-.135-3.469.081h-1.774c-1.554 0-3.252-.052-4.679-.081l-3.953.081c-1.718 0-3.363-.108-4.84.081-.168.021-.457-.079-.726-.081l-3.63-.081v.726c.859 0 1.892-.007 2.662.162.994.218 3.062.015 3.872-.162l2.098.081c1.065 0 2.29-.005 3.226.081.894.082 1.976-.087 2.743.08 1.613-.053 3.227-.107 4.84-.161l9.276.081c.723-.156 1.805-.081 2.662-.081h12.504c1.551 0 2.933-.134 4.275.161.79.174 3.674.069 4.356-.08h1.129c1.292-.28 3.653-.134 5.001.161 1.061.232 2.211-.295 2.985-.161l11.616-.081c.579.125 1.498-.066 2.178.081 1.124.242 4.928.246 6.05 0 1.619-.356 3.976.267 5.566-.081h9.518c.919.2 2.893.569 4.033.323.88-.191 3.177-.381 4.195-.162.248.054.836.162 1.21.081 1.398-.302 5.242-.498 6.776-.161l19.521-.081m-55.74-1.5328c.022-.42.068-.61 0-.968-.181-.063-.438-.082-.726-.081-.134.189-.269.377-.403.565.051.141.015.078.08.162.091.231.014.148.242.241.161.108.525.09.807.081m-21.457-2.2586h-.403c-.099.184-.132.182-.162.484.065.082.029.022.081.161.188.054.376.108.565.162-.007.307.011.61.08.806.182.071.208.144.323.081.249-.084.236-.078.323-.322.071-.114.087-.453.161-.565.159-.083.836-.028 1.129-.081.099-.184.132-.182.162-.484-.561-.474-.887-.104-1.372-.403-.077-.115-.078-.264-.08-.484.116-.196.013-.731 0-1.13.08-.026.161-.053.242-.08.114-.078.264-.079.484-.081.191.214.381.419.726.484.082-.065.022-.029.161-.081.067-.233.112-.207.161-.483-.14-.147-.231-.372-.322-.565-.591-.055-1.187-.129-1.856-.081-.218.684-.479 1.855-.403 2.662m-29.5235 1.694l.081-.887h1.21c.068-.118.146-.231.242-.323-.044-.122-.055-.137-.081-.323-.304-.162-.773-.171-1.291-.161v-.081h-.08c.053-.401-.021-1.262.08-1.774h.162c.136-.092.395-.086.645-.081.13.307.136.444.565.484.068-.118.146-.231.242-.323-.081-.268-.162-.537-.242-.806-.152-.053-.316-.077-.565-.081-.2-.133-.718-.09-1.049-.081-.106.137-.311.191-.403.323-.328.47-.246 1.541-.242 2.339-.329.126-.494.163-.565.565.065.082.029.022.081.161.234.068.207.113.484.162l.081.806h.161c.114.078.264.079.484.081m100.8318-.9679h1.129c.104-.148.159-.138.242-.323h.081v-.08h-.081c-.09-.232-.014-.149-.242-.242-.319-.198-.867.024-1.21-.081.119-.598.011-1.185 0-1.855h.081v-.081l.726-.081c.14.258.425.634.726.484.281-.11.248-.184.242-.564-.157-.188-.194-.343-.403-.484-.619-.509-1.906.004-2.098.484v1.694c.065.095.063.135.081.322-.371.081-.427.199-.645.404.051.141.015.078.08.161.105.199-.034.055.162.161.095.065.135.063.322.081-.007.249-.011.511.081.645.096.291.122.295.484.323.105-.195.145-.229.161-.565.071-.104.072-.199.081-.403m-40.0101.1612l.726-.081c.188-.215.377-.43.565-.645.233-.526.272-2.213.08-2.581-.081-.222-.116-.177-.242-.323-.239.052-.297.048-.403.242-.331.461-.208 1.697-.161 2.259-.118.069-.232.146-.323.242-1.112-.259-1.182-.984-1.129-2.42-.061-.087-.049-.077-.081-.242-.141-.051-.078-.016-.161-.081-.904.205-.598 2.235-.565 3.307h.081v.081l.564.081c.069-.118.147-.232.242-.323.204.247.573.271.807.484m-70.6629-.0805l1.049-.081c.445-.962.463-1.696.564-3.146-.143-.108-.23-.247-.322-.403-.142.051-.079.016-.162.081-.297.105-.377.265-.403.645.157.373-.037 1.176 0 1.855-.279.07-.354.142-.726.162-.192-.197-.44-.297-.565-.565-.252-.377-.172-1.25-.161-1.855-.169-.091-.148-.116-.403-.162-.115-.003-.198-.064-.323.162-.288.453-.092 2.481-.081 3.065.205.111.283.154.646.161.08-.183.06-.224.242-.322.179.25.398.225.645.403m31.7821-1.452c-.339-.029-.306-.031-.645 0-.059.262-.101.378-.323.484-.095.065-.136.062-.323.081-.839-.852-1.003-.612-.968-2.42-.064-.083-.028-.022-.08-.162-.139-.048-.254-.071-.484-.08-.203.302-.321.328-.323.887-.216.349-.012 1.781 0 2.42.118.069.231.146.323.242.141-.051.078-.016.161-.081.328-.12.226-.241.403-.484.192.32 1.028.887 1.614.484.188-.107.376-.215.564-.322.057-.465.105-.58.081-1.049m29.0396 1.3713c.029-.99.105-1.765 0-2.662l.807-.081v-.161c.174-.259.015-.472-.242-.565-.317-.205-1.667-.012-2.098.081-.052.101-.088.167-.161.242v.161c.317.213.372.327.968.323-.003.708-.055 1.329 0 1.855l-.807.081c-.034.373-.106.561.242.726.13.048.901.007 1.291 0m20.5698.0807c1.087-.271.957-2.392.726-3.469h-.161c-.407-.272-.524.259-.484.726-.223.375.007 1.26-.162 1.775-.141-.051-.078-.016-.161-.081-.25-.29-.143-1.881-.242-2.42-.193-.068-.133-.032-.242-.161-.202.092-.303.115-.403.323-.365.585.112 1.735-.081 2.339h-.161c-.295-.478-.255-1.362-.242-2.178-.055-.062-.106-.18-.162-.242-.104-.071-.199-.072-.403-.081-.082.065-.022.029-.161.081v.161c-.136.206-.122 2.742-.081 2.824.09.231.014.148.242.242.631.366 1.57-.233 2.178.161m18.1497 0c.242-.125.329-.293.565-.403.317.455 1.073.305 1.694.242.464-.784.491-1.795.484-3.146-.196-.105-.229-.146-.565-.162v.162c-.335.47-.251 1.571-.242 2.339-.081.027-.161.054-.242.081-.087.06-.076.048-.242.08-.899-.681-1.099-.314-1.049-2.016.125-.19.048-.346 0-.565-.161-.027-.322-.054-.484-.081-.027.054-.053.108-.08.162-.384.489-.218 2.488-.081 3.146.101.052.167.088.242.161m-110.4311-1.5327c.002.22.003.37.081.484.083.185.138.175.242.323h1.048c.097-.146.176-.228.323-.323-.004-.249-.028-.414-.081-.565-.522-.006-1.221-.053-1.613.081m.242-.807c.679-.006 1.639-.101 2.178.081.044.674.15 1.28-.242 1.694-.27.551-1.139.538-1.855.645-.105-.064-.328-.004-.484-.08-.657-.322-.931-2.371-.323-2.985.149-.338 1.19-.918 1.694-.565h1.129c.052.14.016.079.081.162-.055.36-.179.48-.323.726-.589-.007-1.4-.074-1.855.08l-.081.162h.081zm30.0077.807l.081.484c.147.068.361.143.484.242.534.008.682-.062.968-.242v-.484c-.417.073-.937.005-1.533 0m2.339-.726c.011.364.069.983-.08 1.21-.019.664-.302.669-.565 1.049-2.229.05-2.552-.533-2.501-2.582.24-.231.548-.613.726-.887.62-.008 1.487.125 2.097-.081.101.13.169.165.323.242-.016.21-.035.274-.08.404-.168.035-.368.076-.484.161-.592-.01-1.251-.031-1.614.161.026.186.038.201.081.323zm68.4046 1.2099c.109.129.049.094.242.161.135.071.241-.015.403.081.412-.022.462-.11.726-.242v-.484c-.503.039-1.038.061-1.532 0 .029.231.053.349.161.484m1.291-1.613c-.555-.01-1.12-.016-1.452.161v.242c.707-.028 1.603-.177 2.178.081.233.553.285 1.144-.081 1.613-.4.53-1.212.517-2.178.484-.195-.203-.379-.254-.484-.565-.51-.749-.089-2.085.161-2.581.254-.065.543-.174.726-.323.832-.02 1.526-.057 1.936.323-.057.301-.118.285-.242.484-.235-.002-.44-.004-.564.081" fill="#d3d3d3"/></g><g clip-path="url(#d)" transform="matrix(1.25 0 0 -1.25 -431.575 110.5512)"><path d="M412.1501 59.966c-.139-.052-.079-.016-.161-.081-.37-.005-.797-.006-1.049.081.019.407.064.362.242.565.239-.024.785-.043.968-.162.081-.027.161-.053.242-.08l-.242-.323m.807 2.178c-.133.192-.217.256-.484.323-.104.053-1.223.097-1.372 0h-.322c-.052-.14-.016-.079-.081-.162.004-.249.028-.413.081-.564.219-.048.375-.125.564 0 .558.01.751-.055 1.049-.242v-.242c-.521.035-1.316.22-1.694-.081-.399-.144-.434-.49-.726-.726.016-.602.17-.994.484-1.291.637-.507 1.888-.052 2.42-.161.111.12.261.236.403.323.005.842.061 2.289-.322 2.823m-67.5174-4.9205v.645l4.195.081.968.081c.851-.119 2.418-.289 3.388-.081 1.185.255 5.186.254 6.372 0 1.828.054 3.657.107 5.485.161 1.79-.386 4.294-.282 5.97.081 1.329.288 2.415-.457 3.791-.161.792.169 3.124.275 4.033.08 2.377-.51 5.328-.084 7.664-.08 1.881.003 4.296-.394 6.13 0 1.001.214 2.481.016 3.307-.162l2.178.081c1.462.011 3.287-.201 4.598.081l4.84-.081h10.89c1.237-.054 2.474-.108 3.711-.161.476.101 1.278-.044 1.855.08 1.081.232 4.566.232 5.646 0h3.388c.714-.153 2.799-.259 3.63-.08 1.553.333 3.706-.267 5.324.08.945.203 2.5.289 3.469.081h4.679c8.733 0 17.89-.047 26.7-.081.068-.197.084-.498.08-.806h.081v-.081h-.081v-.081c-.889.292-2.418.081-3.468.081l-6.695.081c-.811-.174-1.992.112-2.904-.081-.109-.023-.412-.129-.646-.081-2.051.427-4.947.162-7.26.162h-2.258c-.867.186-1.946-.002-2.985 0-1.427.001-3.014.207-4.356-.081-1.183.054-2.366.108-3.549.161-2.635-.027-5.271-.054-7.905-.08h-7.099c-1.139.244-4.911.244-6.05 0-1.363-.293-2.922.21-4.275-.081-1-.215-2.481-.016-3.307.161-.621.133-1.599-.005-2.098-.08-1.3-.196-2.853.172-4.033-.081-.801-.172-1.886.029-2.5.161-.968-.027-1.937-.054-2.904-.08h-5.647c-1.22-.264-2.909-.357-4.195-.081h-8.792c-1.153-.247-3.522-.266-4.759 0-.501.107-1.214-.005-1.614.081l-3.146-.081-7.824-.081c-7.368.093-14.806.131-22.022.323m134.549 29.3104h.2c.096 0 .162.014.196.043.035.028.053.066.053.113 0 .031-.009.058-.025.082a.156.156 0 01-.07.053c-.03.012-.085.018-.166.018h-.188zm-.165-.576v1.023h.352c.12 0 .207-.009.261-.028a.256.256 0 00.128-.099.2619.2619 0 00.048-.15c0-.075-.027-.14-.08-.195-.053-.056-.124-.087-.212-.093.036-.016.065-.034.087-.055.041-.04.091-.108.151-.203l.125-.2h-.202l-.091.161c-.071.127-.129.207-.173.239-.03.023-.074.035-.132.035h-.097v-.435zm.417 1.32c-.133 0-.263-.035-.39-.103a.7372.7372 0 01-.297-.294c-.071-.127-.107-.26-.107-.397s.035-.269.105-.394a.745.745 0 01.295-.294c.126-.07.257-.105.394-.105s.269.035.395.105c.126.07.224.168.293.294.07.125.105.257.105.394s-.036.27-.107.397a.7287.7287 0 01-.296.294c-.127.068-.257.103-.39.103m0 .157c.16 0 .316-.041.468-.123.152-.082.27-.199.355-.351.085-.153.128-.312.128-.477 0-.164-.042-.322-.126-.473-.084-.151-.201-.269-.352-.352-.15-.084-.308-.126-.473-.126-.164 0-.322.042-.473.126-.151.083-.268.201-.352.352-.085.151-.126.309-.126.473 0 .165.042.324.128.477.085.152.203.269.355.351.153.082.308.123.468.123" fill="#d3d3d3"/></g></svg>