<svg xmlns="http://www.w3.org/2000/svg" height="800" width="1200" viewBox="-299.56995 -289.96275 2596.2729 1739.7765"><path fill="#d3d3d3" d="M874.124 32.405c68.254-39.645 155.77-42.996 227.13-9.597 8.242 4.566 19.375 6.566 23.94 15.629-43.561-5.782-85.558 13.203-122.66 33.969-8.847 4.46-16.66-4.707-24.511-7.672-34.285-14.7-70.5-31.613-108.82-26.082 1.21-1.536 3.707-4.676 4.921-6.246zm-116.91 154.157c11.344-43.605 34-84.78 66.824-115.83 15.164-4.031 29.688 4.817 42.457 11.918 23.762 14.988 43.352 35.434 64.508 53.703-41.531 51.352-79.742 105.95-108.36 165.64-13.484 29.758-27.828 62.41-20.336 95.738-9.457-6.742-14.2-17.77-20.16-27.367-31.86-54.918-40.742-122.36-24.938-183.81zm387.59-111.837c8.386-3.105 18.84-8.062 27.227-2.64 72.746 68.727 94.617 184.34 52.945 275.23-8.813 17.699-16.77 37.219-31.97 50.387 1.606-10.098 3.606-20.375 1.536-30.582-5.637-36.29-23.121-69.188-40.426-101.09-25.652-45.816-56.371-88.531-89.086-129.53 24.402-23.125 49.164-47.066 79.773-61.77zm-287.44 269.307c39.28-55.133 87.129-104.3 140.54-145.88 46.273 36.47 88.234 78.504 124.73 124.79 17.129 22.801 34.324 46.496 43.137 73.938 3.925 12.668 5.351 29.297-6.207 38.54-35.215 30.151-78.992 50.667-125.02 56.913-70.5 10.738-145.21-10.457-199.09-57.309-8.028-6.742-9.918-18.34-7.957-28.152 4.246-23.16 17.02-43.535 29.863-62.84zm200.74 247.36c39.637-29.406 94.797-34.613 140.07-15.844 26.328 10.848 47.734 31.113 63.508 54.488 15.27 28.938 23.227 61.695 22.082 94.488-.641 43.25-16.445 87.961-49.484 117.01-54.875 48.602-149 43.746-196.95-12.383-33.395-38.004-42.707-91.922-35.11-140.81 2.786-21.73 12.095-41.605 21.267-61.23 10.703-12.668 21.05-25.94 34.609-35.719m67.145 6.637c-21.762 3.816-43.918 12.918-57.371 31.258-23.117 21.55-32.22 53.633-33.535 84.355-.536 36.113 8.738 74.973 35.64 100.73 36.32 37.074 101.72 38.324 140.07 3.71 20.802-18.198 33.29-44.495 37.356-71.581 6.03-36.395.25-75.934-20.941-106.69-6.461-7.707-14.414-14.023-20.801-21.805-22.23-18.055-52.52-23.801-80.422-19.98zm-641.187-26.267c13.023-.14 26.082-.105 39.105-.176 27.758 38.18 58.262 74.293 84.594 113.54 27.113-37.645 57.547-72.863 82.488-111.97 13.664-3.605 28.258-1.07 42.277-1.285-33.86 47.637-69.82 93.738-103.57 141.52 11.809 13.488 21.516 28.652 31.648 43.391 27.473 37.22 54.87 74.473 82.273 111.73-13.273-.074-26.543-.11-39.816-.144-31.078-41.891-61.688-84.105-93.801-125.21-8.883 5.816-12.63 17.164-19.871 24.836-9.918 9.133-16.77 20.91-25.047 31.434-16.77 23.055-34 45.785-50.77 68.87-13.344 0-26.688.071-40.031.216 31.895-42.605 62.973-85.82 94.762-128.5 6.777-8.637 9.632-20.59 19.48-26.551-10.988-12.773-20.91-26.441-30.008-40.605-11.023-14.703-23.152-28.547-34.215-43.25-9.454-21.516-26.902-38.18-39.496-57.844z"/><path fill="#d3d3d3" d="M758.314 571.622c40.996.07 81.988-.074 123.02.035 19.695.215 40.387 2.711 57.477 13.273 23.55 13.703 39.176 40.965 37.215 68.371.32 24.086-14.13 46.137-34.395 58.34 16.875 9.422 32.68 23.055 38.96 41.93 12.345 32.293 2.07 72.793-26.257 93.383-21.871 16.344-49.953 21.375-76.746 21.445-39.711-.07-79.457.145-119.17.036-1.141-46.316.109-92.668-.106-139.02-20.8.14-41.602-.04-62.402 0a1502.02 1502.02 0 0121.977-29.902c13.453-.145 26.902-.29 40.355-.395-1.465-42.5.25-84.996.07-127.5m33.36 31.863c.464 31.867.285 63.695.07 95.562 31.043-.25 62.082.5 93.086.035 15.77-.535 32.539-4.605 44.098-15.988 18.125-17.305 16.129-49.383-1.106-66.512-14.984-11.918-35.105-13.633-53.516-13.598-27.547.285-55.09-.425-82.633.5m.18 126.25c.21 35.754-.43 71.543.32 107.3 30.79-.324 61.617.176 92.406-.215 17.59-1 36.355-4.316 50.234-16.059 17.84-15.523 21.301-43.676 10.848-64.266-11.738-19.305-35.82-25.406-56.977-26.477-32.254-.75-64.543-.07-96.832-.285zm470.953-158.078c13.02-.07 26.008.035 39.03-.144 28.685 38.074 56.837 76.543 85.7 114.47 26.758-38.61 55.98-75.47 83.633-113.44 12.914-2.106 26.188-.57 39.246-.89-11.953 20.09-28.152 37.253-40.07 57.378-19.051 24.836-37.391 50.207-56.191 75.184-2.497 3.39-5.637 7.461-3.747 11.918 36.605 51.027 73.855 101.63 111.03 152.26-13.273.145-26.547.035-39.816-.21-31.078-42.716-62.973-84.786-94.336-127.25-32.039 42.43-63.543 85.25-95.652 127.61-13.129-.286-26.227-.216-39.32-.11 38.57-51.383 75.926-103.73 114.39-155.22-34.359-47.422-69.359-94.31-103.89-141.55zM41 957.892c33.035-24.16 81.488-23.766 114.24.676 17.91 13.453 28.613 34.473 33.359 56.023-8.637.18-17.27.36-25.902.574-4.247-10.887-7.387-22.66-15.06-31.762-29.503-33.934-94.831-25.69-111.57 17.238-15.374 29.973-17.27 67.227-2.925 97.914 20.3 41.57 83.883 51.172 115.6 17.45 13.203-11.849 16.449-30.118 18.52-46.888-23.406.14-46.773-.074-70.18.211l.105-23.44c31.078-.145 62.188-.18 93.301.07-.18 36.362-.035 72.757.106 109.12h-24.438c.215-8.317.425-16.63.82-24.907-14.273 17.234-35.859 27.973-58.086 29.652H85.199c-21.336-2.926-42.742-11.383-57.621-27.44-14.555-15.845-23.332-36.255-27.578-57.165v-48.21c5.172-26.763 18.375-53.06 40.996-69.118zm824.704 7.78c13.703-17.664 37.035-24.727 58.586-25.477 24.977-.715 52.805 4.961 69.75 24.836 11.953 12.988 14.988 31.078 16.129 48.031l-23.941.211c-1.641-9.918-1.786-20.695-7.707-29.223-8.098-12.277-22.621-18.449-36.711-20.484-17.164-2.531-36.11-.89-50.56 9.492-12.022 8.457-15.84 26.121-9.312 39.11 4.566 7.636 12.844 12.026 20.875 15.167 25.723 9.489 54.051 9.848 79.168 21.23 11.703 5.172 22.371 13.738 27.832 25.547 8.953 20.95 5.137 47.566-11.492 63.66-15.27 15.31-37.426 20.41-58.262 22.055h-3.281c-25.402-1.43-53.2-6.71-71-26.55-14.023-14.95-17.2-36.22-16.84-55.915h24.012c.21 11.598-.43 24.156 6.027 34.434 9.277 15.7 28.043 22.266 45.207 24.406 19.086 2.32 40.816.325 55.656-13.094 15.02-12.988 14.63-41.359-3.746-51.172-31.824-17.27-71.676-12.559-102-33.328-22.906-16.164-25.047-51.598-8.387-72.938zm775.6 8.6c33.469-41.895 102.36-45.676 141.43-9.636 39.89 36.863 44.457 102.2 18.305 148.2-15.164 27.012-44.348 43.32-74.57 46.996h-12.273c-47.88 1.035-89.695-39.504-95.938-85.891-5.602-34.473.105-72.297 23.047-99.664m54.695-8.743c-21.941 5.993-39.781 23.23-47.81 44.391-11.702 30.613-10.272 67.727 8.528 95.238 22.477 33.758 74.855 42 106 15.45 36.75-31.294 38.996-91.849 11.738-129.96-17.555-23.802-50.414-33.224-78.457-25.122zm158.404-6.352c20.23-18.414 49.914-21.41 75.922-17.414 20.98 2.856 42.21 13.418 52.77 32.473 7.136 11.738 8.562 25.656 9.421 39.07-8.03-.035-16.059-.035-24.012-.035-.75-11.953-2.32-24.87-11.062-33.828-15.77-16.949-41.672-19.23-63.223-15.309-15.875 2.68-31.969 14.418-32.68 31.688-1.75 12.668 6.883 24.445 18.266 29.117 26.902 11.348 56.98 11.812 84.094 22.66 14.238 6.352 26.867 18.344 31.008 33.758 5.063 18.2 1.567 39.36-11.312 53.598-16.199 19.66-43.422 25.477-67.754 24.406-26.473-.5-55.586-8.812-71.676-31.332-10.918-14.629-13.203-33.328-12.809-51.027 8.204 0 16.445.04 24.723.04.286 12.093-1.105 25.581 6.707 35.858 8.387 13.348 23.977 19.625 38.961 22.016 20.23 3.785 43.492 2.145 59.906-11.453 15.484-12.988 15.45-42.46-3.89-51.883-31.47-16.094-70.07-12.418-100.04-32.223-26.543-17.305-26.508-60.09-3.317-80.18zm-1590.2 40.43c9.918-17.629 14.949-37.398 24.297-55.312 6.957.43 13.914.785 20.87 1.25 18.485 49.352 40.747 97.168 58.73 146.7 8.454 17.2 11.985 36.434 21.728 53.027.964 3.246 1.925 6.528 2.89 9.813-10.133-.145-20.87 2.14-30.363-2.356-2.996-21.84-15.734-40.824-22.836-61.449-28.043.11-56.12.535-84.164-.285-9.812 21.02-16.414 43.355-26.723 64.16-8.672 0-17.375.07-26.047.07 5.246-18.27 14.238-35.148 20.836-52.953 14.273-33.934 25.262-69.227 40.781-102.66m.18 68.762c22.547-.25 45.062-.035 67.609.176-8.383-21.801-17.055-43.496-25.832-65.121-2.176-8.278-4.352-16.594-7.098-24.727-12.309 29.543-23.406 59.66-34.68 89.672zm140.571-123.257a964.93 964.93 0 0127.113-.465c25.44 57.805 49.809 116.08 74.32 174.28 17.09-40.074 34.109-80.254 49.379-121.04 10.348-16.27 15.84-35.004 23.406-52.598 9.308-.39 18.62-.57 27.969-.64.43 69.973.039 139.95.93 209.93-8.493.355-17.02.39-25.513.25.11-52.633-.07-105.27.145-157.9-16.09 34.539-28.543 70.617-44.062 105.41-8.172 17.094-12.844 35.578-19.625 53.242-7.422-.25-14.88-.43-22.336-.535-23.227-52.348-44.453-105.59-66.824-158.29.144 52.598-.39 105.2.25 157.79-8.707.25-17.375.46-26.047.785 1.535-52.062-.25-104.16.36-156.26 1.034-17.95.745-35.97.534-53.953zm227.56-.04c49.203-.39 98.438-.355 147.64-.14a2037.78 2037.78 0 000 20.98c-41.281.18-82.523-.07-123.8.074a3798.43 3798.43 0 010 69.973c38.78.07 77.527-.426 116.31.285-.145 6.816-.25 13.633-.32 20.484-38.536.215-77.067-.11-115.64.176-.5 25.586-.321 51.207-.036 76.828 41.672.215 83.309.035 124.95.105-.14 6.926-.32 13.883-.46 20.805-49.595.07-99.189-.035-148.78.145.034-69.906.32-139.81.14-209.71zm380.89-.18c54.516.14 109.04-.074 163.55.14-.07 7.602-.145 15.239-.215 22.876-23.121-.11-46.238-.07-69.324-.035.25 62.266-.141 124.57.43 186.88-8.563.07-17.09.105-25.618.105 1.14-62.23-.359-124.5.641-186.77-23.191-.496-46.418-.176-69.645-.21 0-7.673.07-15.345.18-22.98zm177.9.11c8.132-.035 16.27.035 24.402.215-.606 40.61-.106 81.25-.25 121.89-.215 14.738 2.64 29.512 7.992 43.25 8.207 17.375 27.828 26.367 46.383 26.727 16.734.5 35.395-3 46.988-16.164 11.738-13.883 14.199-32.902 14.379-50.457-.145-41.785-.035-83.57-.145-125.39h24.121c.07 41.93.176 83.895-.035 125.86-.215 24.34-5.031 51.027-23.586 68.336-20.69 19.91-51.91 22.09-79.027 19.09-14.594-1.176-26.938-9.527-39.496-16.199-8.347-13.273-16.875-27.012-19.586-42.715-2.07-13.129-2.39-26.441-2.32-39.68.89-38.25.676-76.504.18-114.76zm189.7-.25c27.188.785 54.41-.32 81.594.715 27.227 1.285 55.41 13.668 70.074 37.504 17.27 27.691 19.98 62.34 14.879 93.988-4.532 27.547-20.48 55.383-46.883 66.98-37.355 17.984-79.918 8.207-119.74 10.738.144-69.973-.07-139.95.074-209.93m23.938 22.875c.039 54.879.324 109.76.039 164.68 28.363-1.68 59.188 5.102 85.379-8.992 25.973-14.348 35.355-46.246 34.926-74.152.25-26.191-6.172-56.95-30.398-71.402-27.258-15.81-60.008-8.887-89.945-10.133zm165.664-22.69c8.386.035 16.77.035 25.227.07-.395 69.907.57 139.84-.32 209.75-8.423.036-16.845 0-25.228-.18.395-69.866.106-139.74.32-209.64z"/></svg>